<svg width="55px" height="59px" viewBox="0 0 55 59" version="1.1" xmlns="http://www.w3.org/2000/svg" xmlns:xlink="http://www.w3.org/1999/xlink">
    <!-- Generator: Sketch 59.1 (86144) - https://sketch.com -->
    <title>F-Shield_flat_logo_pms</title>
    <desc>Created with Sketch.</desc>
    <defs>
        <polygon id="path-1" points="0 0 55 0 55 59 0 59"/>
    </defs>
    <g id="Page-1" stroke="none" stroke-width="1" fill="none" fill-rule="evenodd">
        <g id="F-Shield_flat_logo_pms">
            <g id="Group-3">
                <mask id="mask-2" fill="white">
                    <use xlink:href="#path-1"/>
                </mask>
                <g id="Clip-2"/>
                <path d="M54.8430375,7.7497815 C54.8430375,7.7497815 29.9908572,-9.68722687 0.194609276,7.7497815 C0.194609276,7.7497815 -4.09024939,41.0988888 27.5517838,59 C27.5517838,59 57.4139527,44.6128106 54.8430375,7.7497815 M27.5517838,55.8175802 C-0.266837042,39.043576 2.89736628,9.34099138 2.89736628,9.34099138 C29.46349,-5.31139968 52.2721223,9.47359221 52.2721223,9.47359221 C53.7223822,42.0933949 27.5517838,55.8175802 27.5517838,55.8175802" id="Fill-1" fill="#FFFFFE" mask="url(#mask-2)"/>
            </g>
            <path d="M30.4759838,19.7516152 C30.4759838,19.7516152 28.7364809,24.215916 30.141464,26.7106723 C30.141464,26.7106723 35.159261,23.7563556 40.177058,25.4632942 L37.1663798,32.8819116 C37.1663798,32.8819116 34.7578373,31.1749731 32.2823908,32.6193057 C32.2823908,32.6193057 34.2232746,38.527939 29.8745172,42.9922398 C25.5250908,47.4565406 21.3101413,47.1939346 19.9720621,46.8000257 C19.9720621,46.8000257 21.845373,43.8457091 21.9791809,41.1539983 C22.1798928,38.4622876 21.3770453,36.3614401 21.3770453,36.3614401 C21.3770453,36.3614401 20.0389661,33.5384264 19.8382542,29.4023831 C19.6375423,25.2006882 22.4475086,20.0798726 23.3841641,19.0294489 C23.3841641,19.0294489 18.7677908,17.7164193 12.1442988,21.9837656 C12.1442988,21.9837656 10.9400275,16.86295 15.4894968,12.0047404 C20.0389661,7.14653074 26.6624581,8.78781778 26.6624581,8.78781778 L34.2232746,10.3634533 C34.2232746,10.3634533 39.2410716,11.2825741 41.2481904,10.5604078 C43.1877362,9.83824149 44.8603352,8.7221663 45.7969907,8 C45.7969907,8 46.3991263,11.2169226 45.5293748,13.7116789 C44.8603352,15.6812234 43.522256,17.1912075 40.8460976,18.7011915 C37.8354194,20.4081301 33.8887548,20.4737815 30.4759838,19.7516152" id="Fill-4" fill="#FFFFFE" style="color: black;"/>
        </g>
    </g>
</svg>